<?xml version="1.0" standalone="no"?>
<!DOCTYPE svg PUBLIC "-//W3C//DTD SVG 20010904//EN"
 "http://www.w3.org/TR/2001/REC-SVG-20010904/DTD/svg10.dtd">
<svg version="1.0" xmlns="http://www.w3.org/2000/svg"
 width="500.000000pt" height="500.000000pt" viewBox="0 0 500.000000 500.000000"
 preserveAspectRatio="xMidYMid meet">
<metadata>
Created by potrace 1.11, written by Peter Selinger 2001-2013
</metadata>
<g transform="translate(0.000000,500.000000) scale(0.100000,-0.100000)"
fill="#000000" stroke="none">
<path d="M2333 4801 l-33 -21 0 -1049 0 -1050 26 -20 c63 -50 33 -65 974 493
l865 513 3 71 c3 69 2 71 -30 95 -18 13 -408 239 -867 502 -560 321 -845 479
-870 482 -25 3 -46 -2 -68 -16z"/>
<path d="M1633 3452 c-31 -19 -1473 -1465 -1478 -1482 -8 -25 20 -85 50 -104
22 -14 1925 -506 1959 -506 27 0 106 79 106 106 0 13 -115 450 -256 971 -243
899 -258 950 -287 979 -33 33 -74 48 -94 36z"/>
<path d="M3115 2560 c-59 -24 -56 -14 -311 -1011 -134 -524 -244 -967 -244
-984 0 -23 11 -41 43 -73 23 -23 48 -42 54 -42 17 0 1904 508 1931 520 28 12
62 67 62 100 0 20 -152 177 -738 763 -497 496 -744 737 -757 736 -11 0 -29 -4
-40 -9z"/>
</g>
</svg>
